<svg aria-hidden="true" style="width:0;height:0;position:absolute;overflow:hidden" xmlns="http://www.w3.org/2000/svg"><defs><symbol id="icon-logo" viewBox="0 0 32 32"><path d="m6.406 6.835 2.317-1.344.307.538 8.531-4.966-1.562-.909L2.111 8.256v.365l3.987-2.33zM6.406 11.936l6.688-3.898.307.544 8.531-4.966-.627-.371-.627-.365-.307-.173-18.259 10.65v.365l3.987-2.336zM6.406 14.49l8.87-5.171.314.538 8.525-4.973-.627-.358-.621-.365-.314-.186-20.442 11.93v.365l3.987-2.323zM6.406 17.037l11.117-6.483.314.544 8.461-4.934-.621-.371-.627-.358-.307-.186-22.63 13.21v.358l3.987-2.33zM6.406 19.584l13.306-7.757.307.55 8.467-4.947-.627-.358-.621-.365-.314-.186L2.111 21.004v.358l3.987-2.323zM29.421 7.981l-.314-.186L2.112 23.558v.358l3.987-2.323.307.544 13.306-7.757.307.544 9.869-5.754v-.915zM3.821 25.466l2.234-1.306.314.544 13.28-7.744.307.55 9.933-5.798V9.894L3.515 25.286zM19.648 19.514l.307.55 9.933-5.792v-1.824L5.696 26.56l.314.179 2.272-1.325.314.544zM8.198 28.019l2.272-1.331.307.55 8.87-5.178.307.55 9.933-5.798v-1.818L7.877 27.826zM10.381 29.293l2.272-1.325.314.544 6.682-3.898.307.544 9.933-5.798v-1.818L10.068 29.107zM12.256 30.381l.307.186 2.278-1.331.307.55 4.499-2.624.307.544 9.933-5.792V20.09zM14.752 31.846l2.272-1.338.307.55 2.317-1.35.307.55 9.933-5.792v-1.824l-15.45 9.018zM19.744 2.336l-.627-.365-.621-.358-.314-.186-16.07 9.376v.365l3.987-2.323.307.538 4.499-2.618.32.544z"/></symbol><symbol id="icon-arrow" viewBox="0 0 82 32"><path d="M81.414 17.414a2 2 0 0 0 0-2.828L68.686 1.858a2 2 0 1 0-2.828 2.828L77.172 16 65.858 27.314a2 2 0 1 0 2.828 2.828l12.728-12.728zM0 18h80v-4H0v4z"/></symbol></defs></svg>