<!-- Generated by IcoMoon.io -->
<svg version="1.1" xmlns="http://www.w3.org/2000/svg" width="1024" height="1024" viewBox="0 0 1024 1024">
<title>ren</title>
<g id="icomoon-ignore">
</g>
<path fill="#000" d="M205.006 218.727l74.138-43.008 9.83 17.203 272.998-158.925-49.971-29.082-444.416 259.277v11.674l127.59-74.547z"></path>
<path fill="#000" d="M205.006 381.952l214.016-124.723 9.83 17.408 272.998-158.925-20.070-11.878-20.070-11.674-9.83-5.53-584.294 340.787v11.674l127.59-74.752z"></path>
<path fill="#000" d="M205.006 463.668l283.853-165.478 10.035 17.203 272.794-159.13-20.070-11.469-19.866-11.674-10.035-5.939-654.131 381.747v11.674l127.59-74.342z"></path>
<path fill="#000" d="M205.006 545.178l355.738-207.462 10.035 17.408 270.746-157.901-19.866-11.878-20.070-11.469-9.83-5.939-724.173 422.707v11.469l127.59-74.547z"></path>
<path fill="#000" d="M205.006 626.688l425.779-248.218 9.83 17.613 270.95-158.31-20.070-11.469-19.866-11.674-10.035-5.939-794.010 463.462v11.469l127.59-74.342z"></path>
<path fill="#000" d="M941.467 255.386l-10.035-5.939-863.846 504.422v11.469l127.59-74.342 9.83 17.408 425.779-248.218 9.83 17.408 315.802-184.115v-29.286z"></path>
<path fill="#000" d="M122.267 814.9l71.475-41.779 10.035 17.408 424.96-247.808 9.83 17.613 317.85-185.549v-58.163l-843.981 492.544z"></path>
<path fill="#000" d="M628.737 624.436l9.83 17.613 317.85-185.344v-58.368l-774.144 451.584 10.035 5.734 72.704-42.394 10.035 17.408z"></path>
<path fill="#000" d="M262.35 896.615l72.704-42.598 9.83 17.613 283.853-165.683 9.83 17.613 317.85-185.549v-58.163l-704.307 410.624z"></path>
<path fill="#000" d="M332.187 937.37l72.704-42.394 10.035 17.408 213.811-124.723 9.83 17.408 317.85-185.549v-58.163l-634.266 370.074z"></path>
<path fill="#000" d="M392.193 972.186l9.83 5.939 72.909-42.598 9.83 17.613 143.974-83.968 9.83 17.408 317.85-185.344v-58.368z"></path>
<path fill="#000" d="M472.065 1019.085l72.704-42.803 9.83 17.613 74.138-43.213 9.83 17.613 317.85-185.344v-58.368l-494.387 288.563z"></path>
<path fill="#000" d="M631.809 74.752l-20.070-11.674-19.866-11.469-10.035-5.939-514.253 300.032v11.674l127.59-74.342 9.83 17.203 143.974-83.763 10.24 17.408z"></path>
</svg>
