<svg aria-hidden="true" style="position: absolute; width: 0; height: 0; overflow: hidden;" version="1.1" xmlns="http://www.w3.org/2000/svg" xmlns:xlink="http://www.w3.org/1999/xlink">
<defs>
<symbol id="icon-logo" viewBox="0 0 32 32">
<path d="M6.406 6.835l2.317-1.344 0.307 0.538 8.531-4.966-1.562-0.909-13.888 8.102v0.365l3.987-2.33z"></path>
<path d="M6.406 11.936l6.688-3.898 0.307 0.544 8.531-4.966-0.627-0.371-0.627-0.365-0.307-0.173-18.259 10.65v0.365l3.987-2.336z"></path>
<path d="M6.406 14.49l8.87-5.171 0.314 0.538 8.525-4.973-0.627-0.358-0.621-0.365-0.314-0.186-20.442 11.93v0.365l3.987-2.323z"></path>
<path d="M6.406 17.037l11.117-6.483 0.314 0.544 8.461-4.934-0.621-0.371-0.627-0.358-0.307-0.186-22.63 13.21v0.358l3.987-2.33z"></path>
<path d="M6.406 19.584l13.306-7.757 0.307 0.55 8.467-4.947-0.627-0.358-0.621-0.365-0.314-0.186-24.813 14.483v0.358l3.987-2.323z"></path>
<path d="M29.421 7.981l-0.314-0.186-26.995 15.763v0.358l3.987-2.323 0.307 0.544 13.306-7.757 0.307 0.544 9.869-5.754v-0.915z"></path>
<path d="M3.821 25.466l2.234-1.306 0.314 0.544 13.28-7.744 0.307 0.55 9.933-5.798v-1.818l-26.374 15.392z"></path>
<path d="M19.648 19.514l0.307 0.55 9.933-5.792v-1.824l-24.192 14.112 0.314 0.179 2.272-1.325 0.314 0.544z"></path>
<path d="M8.198 28.019l2.272-1.331 0.307 0.55 8.87-5.178 0.307 0.55 9.933-5.798v-1.818l-22.010 12.832z"></path>
<path d="M10.381 29.293l2.272-1.325 0.314 0.544 6.682-3.898 0.307 0.544 9.933-5.798v-1.818l-19.821 11.565z"></path>
<path d="M12.256 30.381l0.307 0.186 2.278-1.331 0.307 0.55 4.499-2.624 0.307 0.544 9.933-5.792v-1.824z"></path>
<path d="M14.752 31.846l2.272-1.338 0.307 0.55 2.317-1.35 0.307 0.55 9.933-5.792v-1.824l-15.45 9.018z"></path>
<path d="M19.744 2.336l-0.627-0.365-0.621-0.358-0.314-0.186-16.070 9.376v0.365l3.987-2.323 0.307 0.538 4.499-2.618 0.32 0.544z"></path>
</symbol>
<symbol id="icon-arrow" viewBox="0 0 82 32">
<path d="M81.414 17.414c0.781-0.781 0.781-2.047 0-2.828l-12.728-12.728c-0.781-0.781-2.047-0.781-2.828 0s-0.781 2.047 0 2.828l11.314 11.314-11.314 11.314c-0.781 0.781-0.781 2.047 0 2.828s2.047 0.781 2.828 0l12.728-12.728zM0 18h80v-4h-80v4z"></path>
</symbol>
</defs>
</svg>

